/* XPM */
static char *_5b081dcacfb4289ca4f0f8a1f452198CS1ptbfdSB4LEo8O[] = {
/* columns rows colors chars-per-pixel */
"32 32 178 2 ",
"   c #020201",
".  c #040901",
"X  c gray4",
"o  c #0A0C07",
"O  c #0B1F02",
"+  c #0E1409",
"@  c #0B1307",
"#  c #151E0B",
"$  c #101E06",
"%  c #191919",
"&  c #0C2102",
"*  c #0F2802",
"=  c #18220D",
"-  c #172C09",
";  c #163B03",
":  c #123203",
">  c #1F2B12",
",  c #202D12",
"<  c #233412",
"1  c #263F12",
"2  c #2B391B",
"3  c #242424",
"4  c #2D3726",
"5  c #373737",
"6  c #174003",
"7  c #1B4705",
"8  c #1C4806",
"9  c #1F5404",
"0  c #25450F",
"q  c #235E05",
"w  c #23520C",
"e  c #294017",
"r  c #32451C",
"t  c #344E19",
"y  c #37521C",
"u  c #3A521F",
"i  c #2B7706",
"p  c #33700F",
"a  c #2E4721",
"s  c #3B5521",
"d  c #3E5922",
"f  c #3A5725",
"g  c #3A4B26",
"h  c #405922",
"j  c #455136",
"k  c #496627",
"l  c #4A6827",
"z  c #45652C",
"x  c #4A6728",
"c  c #4D6C29",
"v  c #466325",
"b  c #51742C",
"n  c #527B2D",
"m  c #4F7E38",
"M  c #477235",
"N  c #5A7F30",
"B  c #567533",
"V  c #4E504D",
"C  c #525A47",
"Z  c #525252",
"A  c #5C5C5C",
"S  c #494949",
"D  c #5D7A50",
"F  c #646F58",
"G  c #626262",
"H  c #6D6D6D",
"J  c #656E61",
"K  c #6D716B",
"L  c gray45",
"P  c #318707",
"I  c #388E0A",
"U  c #328B07",
"Y  c #379409",
"T  c #3CA308",
"R  c #3FAC09",
"E  c #44B90A",
"W  c #48AD16",
"Q  c #5C8232",
"!  c #5B8835",
"~  c #57933B",
"^  c #608634",
"/  c #648D35",
"(  c #66923E",
")  c #6B963B",
"_  c #6E9C3C",
"`  c #709D3B",
"'  c #58B22C",
"]  c #74A33E",
"[  c #77B23D",
"{  c #46C009",
"}  c #49C50B",
"|  c #4ED50B",
" . c #50DB0B",
".. c #56DC13",
"X. c #58DD17",
"o. c #5CDE1C",
"O. c #5BD51F",
"+. c #5FDE20",
"@. c #60DE21",
"#. c #6CD439",
"$. c #67E02B",
"%. c #69E02E",
"&. c #6DE134",
"*. c #72E23B",
"=. c #4E8540",
"-. c #64934C",
";. c #7BAD42",
":. c #7AAD4B",
">. c #6EB34D",
",. c #66B540",
"<. c #7EB143",
"1. c #7FBF47",
"2. c #7AB34F",
"3. c #7BBB4A",
"4. c #6AA854",
"5. c #64A548",
"6. c #79E343",
"7. c #7DE449",
"8. c #81B545",
"9. c #85BB47",
"0. c #85BC4B",
"q. c #88BE49",
"w. c #84BB51",
"e. c #83B751",
"r. c #82897F",
"t. c #87B86F",
"y. c #84C243",
"u. c #8FC747",
"i. c #85C149",
"p. c #8BC34A",
"a. c #80E54E",
"s. c #83E552",
"d. c #89E75B",
"f. c #8CE85E",
"g. c #92E966",
"h. c #96E96C",
"j. c #9AEB73",
"k. c #9FEB79",
"l. c #A1EC7C",
"z. c gray54",
"x. c #838383",
"c. c gray60",
"v. c #99B38D",
"b. c #AAABA8",
"n. c gray75",
"m. c #B4B4B4",
"M. c #A4EC81",
"N. c #AFEF8F",
"B. c #A8ED86",
"V. c #B1EF93",
"C. c #B5F097",
"Z. c #BAF19E",
"A. c #B6F099",
"S. c #B0C3A7",
"D. c #BDF2A3",
"F. c #C3F2AB",
"G. c #CDF5B9",
"H. c #CAF4B5",
"J. c #D1F6BE",
"K. c #C5C5C5",
"L. c #CACACA",
"P. c #DFDFDF",
"I. c #D5D8D4",
"U. c #D3F6C1",
"Y. c #DDF8CF",
"T. c #DEF8D1",
"R. c #E2F9D6",
"E. c #E5FADB",
"W. c #E8FADF",
"Q. c #E7E7E7",
"!. c #EAEAEA",
"~. c #ECFBE4",
"^. c #ECF7E7",
"/. c #F1FCEB",
"(. c #F6FDF3",
"). c #F9FEF7",
"_. c #FFFFFE",
"`. c #F4F4F4",
/* pixels */
"p.w.>.p.p.p.p.p.p.p.p.<.l # % # = = > N q.p.p.p.p.p.p.p.p.p.p.p.",
"p.p.w.p.p.p.p.p.p.p.p.] u           o x ] 8.p.p.p.p.p.p.p.p.p.p.",
"p.p.p.p.i.p.p.p.p.q.] l j A F A G G A 4 @ s ;.i.p.p.p.p.p.p.p.p.",
"p.p.p.p.0.3.q.p.9.;.l   Z Q._._._.).!.J + y ] 9.p.p.p.y.i.p.p.p.",
"p.p.p.p.i.2.p.<.x r 4 3 H !._._.R.B.d.' I p t u ;.p.p.0.>.0.p.p.",
"p.p.p.p.i.q.;.( , + H ).)._._._.J.6. . . .P & $ / ;.9.p.p.0.p.p.",
"p.p.p.p.9._ < < 8 w -.F.U.)._._.J.6. . . .Y q 8 < < ! q.p.p.p.p.",
"p.p.p.p.:./   & T  . . .d./._._.U.6. . . . . .{ *   c q.p.p.p.p.",
"p.p.p.p.0.!   O T  . . .d.~._._.U.*. . . . . .E *   b 9.p.p.p.p.",
"p.p.p.<.] b   O T  . . .d.~._._.U.6. . . . . .E a 3 B ] ;.p.p.p.",
"p.p.p.n e 0 ; 9 R  . . .d./._._.T.j.a.*.o. . .+.v.b.F r d q.p.p.",
"p.p.q.f   ; } }  . . . .s./._._._./.~.D.&. ...@.T._.H X > 9.p.p.",
"p.p.q.d   6  . . . .@.*.k./._._._._._.U.f.*.*.s.W._.H X , 9.p.p.",
"p.:.:.s   6  . . ...s.G.T.)._._._._._./.U.G.G.U.(._.H X , 9.0.0.",
"p.s s j V D s.s.s.f.Z._._._.~.G.H.H.G.W._._._._._._.c.Z C ^ ^ / ",
"p.    L I.I.R.R.R.R./._._.).F.6.&.&.6.F.)._._._._._.Q.I.b., = = ",
"p.    r././././.)._._.(.U.V.f.X. . ...f.V.J.(._._._._._.K.X     ",
"p.  . Q g.g.g.l.E._._.~.l.o.X. . . . .X.o.k.~._._._._._.K.X     ",
"p.  . i  . . .&.U._._.~.h. . . . . . . . .h.~._._._._._.K.X     ",
"p.    i  . . .o.j.V.J.~.j. . . . . . . . .h.W.(.D.V.N.N.t.      ",
"p.    8 U T  . .o.@.B.~.h. . . . . . . . .h.~.~.6.$.@.@.W       ",
"p.N Q t * 9  . . .X.j.).T.F.h.X. . ...h.F.Y.l.s.X. .E R I < > , ",
"p.p.q.s   6  . . .X.k._._.).A.+. . .X.Z.)._.a. . . .i : 0 ) ` ` ",
"p.p.q.d   ;  . . .X.j._._.).J.j.g.g.h.J._._.s. . . .q . , 9.p.p.",
"p.p.i.u   : T W #.s.V._._._.(.~.~.~.~.(._._.a. . . .q . , 9.p.p.",
"p.p.y.! k y & 2 S.W./._._._._._._._._._._._.s. . . .q   > 9.p.p.",
"p.p.p.q.8.Q   3 n._._._._._._._._._._._._._.s.} 7 * 1 t c q.u.p.",
"p.p.p.p.p.[ ! f 5 S S A m._._._._._._.P.L.L.,.Y &   l ;.8.p.p.p.",
"p.p.p.p.p.#.-.c     X 3 c._._._._._.`.L % % @ $ v b ` 0.i.p.p.p.",
"p.p.p.p.p.e.4.-.h d d g Z z.z.z.z.z.x.5       + -.0.p.p.p.p.p.p.",
"p.p.p.p.p.u.u.q.q.q.q.B         X     < M =.-.~ 8.q.p.p.i.i.0.p.",
"p.0.q.p.p.q.u.q.p.p.p.N               2 _ 9.u.0.q.p.p.p.p.4.w.p."
};
