/* XPM */
static char *f681bf37b3a9452cfee7452c08323895fRsWWUy3yLL193RI[] = {
/* columns rows colors chars-per-pixel */
"32 32 128 2 ",
"   c None",
".  c #010101",
"X  c #0B0B0B",
"o  c #120101",
"O  c #1F0102",
"+  c #151515",
"@  c #1B1B1B",
"#  c #230202",
"$  c #360102",
"%  c #242425",
"&  c #2C2C2C",
"*  c #342D2D",
"=  c #343434",
"-  c #3A3A3A",
";  c #420203",
":  c #5B0304",
">  c #690302",
",  c #720203",
"<  c #780404",
"1  c #710A0B",
"2  c #671211",
"3  c #661D1E",
"4  c #532727",
"5  c #414141",
"6  c #4A4A4A",
"7  c gray33",
"8  c #5C5C5C",
"9  c gray38",
"0  c #686363",
"q  c #6D6D6D",
"w  c #716363",
"e  c #737373",
"r  c gray49",
"t  c #8E0303",
"y  c #920202",
"u  c #9B0303",
"i  c #990E0E",
"p  c #AC0303",
"a  c #BF0303",
"s  c #C20202",
"d  c #CE0303",
"f  c #D20B0B",
"g  c #E60607",
"h  c #F40303",
"j  c #FD0101",
"k  c #FC0708",
"l  c #FA0D0D",
"z  c #F61615",
"x  c #FA1213",
"c  c #FA1B1B",
"v  c #CB3534",
"b  c #FA2727",
"n  c #FA2C2C",
"m  c #FA302F",
"M  c #F93333",
"N  c #F63B3A",
"B  c #F93B3B",
"V  c #BD6C6C",
"C  c #D55C5C",
"Z  c #F84545",
"A  c #F64A4A",
"S  c #F94C4B",
"D  c #F95555",
"F  c #FA5F5E",
"G  c #F8696A",
"H  c #F77575",
"J  c #F77877",
"K  c #848484",
"L  c gray55",
"P  c #9A8787",
"I  c #949494",
"U  c #9A9A9A",
"Y  c #BB8B8B",
"T  c #A2A2A2",
"R  c #ABABAB",
"E  c #B3B3B3",
"W  c #BCBCBC",
"Q  c #F78383",
"!  c #FA8887",
"~  c #F9898A",
"^  c #F99494",
"/  c #FA9E9E",
"(  c #FBA4A4",
")  c #F7B3B3",
"_  c #F7BCBC",
"`  c #C1C1C1",
"'  c #CBCBCB",
"]  c #D0D0D0",
"[  c #DADADA",
"{  c #FBC4C4",
"}  c #F3C8C7",
"|  c #F9C8C7",
" . c #FCCCCC",
".. c #FCD2D2",
"X. c #FBDCDB",
"o. c #E5E4E4",
"O. c #E1E1E1",
"+. c #FCE1E1",
"@. c #F3EFEF",
"#. c #FDEFEF",
"$. c #FCF0EF",
"%. c #F3F3F3",
"&. c #FCF1F1",
"*. c #FDF5F5",
"=. c #FDF6F5",
"-. c #FDF6F7",
";. c #FDF7F7",
":. c #FBFBFB",
">. c #FEF9F9",
",. c #FEFAF9",
"<. c #FFFAFB",
"1. c #FDFDFD",
"2. c #FEFCFC",
"3. c #FFFCFC",
"4. c #FEFDFD",
"5. c #FFFDFD",
"6. c #FEFEFD",
"7. c #FDFEFE",
"8. c #FDFEFF",
"9. c #FEFEFE",
"0. c #FFFEFE",
"q. c #FEFFFE",
"w. c #FFFFFE",
"e. c #FEFEFF",
"r. c #FFFEFF",
"t. c #FEFFFF",
"y. c white",
"u. c #FEFEFE",
/* pixels */
"                                                                ",
"                                                                ",
"                    T . . . . . . . . . . e                     ",
"              T I I 8 . - 0 3 > > 2 0 6 . 5 I I U               ",
"                . . . . L y.Z j j b &.E . . . . @               ",
"          I 9 + @ I I U ] y.Z j j b #.O.I U I = X 7 K           ",
"          8 . . = :.y.y.y.<.Z j j b $.<.y.y.y.8 . . =           ",
"      T - + . u v ,.y.y.^ B l j j k B H y.y.y.C p # X = K       ",
"      K . @ = f b  .....F j j j j j j B ......S g 4 % . 9       ",
"      L . U @.M j l l l k j j j j j j j l l l h c | ` + 9       ",
"    R 8 . T :.J Z j j j m D D D D D D B j j j N G +.' @ 5 R     ",
"    X . . T y.=.{ k j j ! =.=.=.=.=.=.) j j j / <.y.' + . X L   ",
"    . - K ] :.y. .k m Q | y.:.y.y.:.y.X.Q Z j ( y.y.o.L 7 . L   ",
"    . e y.y.y.y. .h F ,.:.y.y.y.y.y.y.y.y.~ j ( y.y.y.y.U . L   ",
"    . e y.y.y.y. .h F ,.y.y.y.y.y.y.:.y.y.! j ( y.:.y.y.U . I   ",
"    . e y.y.:.y. .k F :.y.y.y.:.y.y.y.y.y.~ j ( y.y.y.y.U . L   ",
"    . e y.y.y.A z j F ,.y.y.y.y.y.y.y.y.y.~ j z N ..y.y.U . L   ",
"    . w X.X.X.n j j D X.#.y.y.y.y.y.y.&.X.H j j c ) X.X.P . L   ",
"  E . 1 x x x j j j k x ^ y.y.y.y.y.y._ x l j j k x z x i . I   ",
"  E . , j j j d s s a a V ` ` ` ` ` ` Y a a a s s h j j u . I   ",
"    . , j j h $ . . . . . . . . . . . . . . . . # d j j u . L   ",
"    . ; y y y O + q q q = . 6 q q 8 X @ q q q & o < y y : . L   ",
"  E . . . . . . = :.y.y.e . W y.y.[ X 6 y.y.y.8 . . . . . . L   ",
"    U 7 . . . r R y.y.y.e . W y.y.[ X 6 y.y.y.W L @ . . - U     ",
"      I + X . ' y.y.:.y.r @ W y.y.[ % 7 y.y.y.y.O.& . @ q       ",
"        ` 6 . ' y.y.y.y.[ ' @.y.y.%.' [ y.y.y.y.o.& & E         ",
"          8 . R [ :.y.y.y.y.y.y.y.y.y.y.y.y.y.O.W % = O.        ",
"          8 . @ 6 :.y.y.y.y.y.y.y.y.y.y.y.y.y.q @ . = [         ",
"          I 7 + @ U U U U U U I U U U I U I U = X 6 r           ",
"              & . . . . . . . . . . . . . . . . @               ",
"              T L I I L L L I I L L I I L L I I U               ",
"                                                                "
};
