/* XPM */
static char *_11176cd1cb2408ede38d98a3e5adc77HyLF72ZkoIfIAard[] = {
/* columns rows colors chars-per-pixel */
"32 32 105 2 ",
"   c #020401",
".  c #060B03",
"X  c #0A1600",
"o  c #0D1F07",
"O  c #0B1B0A",
"+  c #0E2007",
"@  c #0E240F",
"#  c #122504",
"$  c #142B02",
"%  c #10270E",
"&  c #1A270F",
"*  c #142B0B",
"=  c #1A2B08",
"-  c #193701",
";  c #1B3C04",
":  c #0F2510",
">  c #122E12",
",  c #202D11",
"<  c #293A16",
"1  c #1F4302",
"2  c #214702",
"3  c #224801",
"4  c #29672C",
"5  c #2C6E2E",
"6  c #2F7226",
"7  c #2D712E",
"8  c #307625",
"9  c #347E28",
"0  c #466327",
"q  c #487B2C",
"w  c #53742C",
"e  c #517F2D",
"r  c #4A7930",
"t  c #577C34",
"y  c #39851D",
"u  c #3D8C19",
"i  c #3E911E",
"p  c #368226",
"a  c #3B8B21",
"s  c #36852E",
"d  c #388E3C",
"f  c #3E9A36",
"g  c #3A923A",
"h  c #499F02",
"j  c #419316",
"k  c #449813",
"l  c #4CA502",
"z  c #4AA30E",
"x  c #4EAB0A",
"c  c #50AE08",
"v  c #52B207",
"b  c #56B902",
"n  c #51B40D",
"m  c #55BA0A",
"M  c #47A116",
"N  c #56802E",
"B  c #5C8131",
"V  c #409D34",
"C  c #648C35",
"Z  c #689137",
"A  c #46A72F",
"S  c #47A92F",
"D  c #49AC2D",
"F  c #4FB727",
"G  c #4FB827",
"H  c #4DB329",
"J  c #52BE24",
"K  c #43A232",
"L  c #72AB3A",
"P  c #5CC702",
"I  c #57C71F",
"U  c #5ACB1E",
"Y  c #5ED319",
"T  c #61D302",
"R  c #65DB03",
"E  c #64DB0D",
"W  c #61D510",
"Q  c #65DF13",
"!  c #60D618",
"~  c #6DEB04",
"^  c #69E70F",
"/  c #6CEC0D",
"(  c #6EF00B",
")  c #76FF03",
"_  c #71F608",
"`  c #66E312",
"'  c #68E610",
"]  c #55C422",
"[  c #73A544",
"{  c #7AAB41",
"}  c #6DB24D",
"|  c #70B648",
" . c #79B74A",
".. c #7DBC49",
"X. c #68A954",
"o. c #81B444",
"O. c #80B74E",
"+. c #85BC4D",
"@. c #89BF4B",
"#. c #83B751",
"$. c #86BB51",
"%. c #81C147",
"&. c #8BC547",
"*. c #85C04A",
"=. c #8BC34A",
/* pixels */
"=.$.} *.                                                  =.=.=.",
"=.=.+.=.  ; 2 2 2 2 3 3 3 2 2 2 2 2 2 2 2 2 2 2 2 2 2 2 X =.=.=.",
"=.=.=.=.  n W W E ~ ~ ~ ~ E W W W W ! W W W W W W W W W 1 =.=.=.",
"=.=.=.=.  s f d V / ) ) / F V f g d d d d d V g g f f g > =.=.=.",
"=.=.=.=.  R _ K V ^ ) ) / U Q _ F d d d d g ] H ! _ ) H > +.=.=.",
"=.=.=.=.  R _ K V ^ ) ) / U Q / F d d d d d K ! ] ` ) H > $.=.=.",
"=.=.=.=.  R _ K V / ) ) / U ` / H d d d d g ] J ! _ ) H > =.=.=.",
"=.=.=.=.  R _ K V / ) ) / U ` / F d d d d d S U ] ` ) F > =.=.=.",
"=.=.=.=.  R _ K V ^ ) ) / U ` ( H d d d d g ] H ! ( ) H > =.=.=.",
"=.=.=.=.  R _ K V ^ ) ) / U ` / H d d d d g S Y ] ` ) H > =.=.=.",
"=.=.=.%.  R _ K V ' ) ) / U ` / F d d d d g G ] ] / ) H > =.=.=.",
"=.=.=.*.  R _ K V / ) ) / U ` ( H d d d d d D U ] / ) H > =.=.=.",
"=.=.=.=.  h v 8 8 x b b c j z x y 4 4 4 4 4 u y k c b y : =.=.=.",
"=.$.+.=., $ $ O O # $ $ # # $ $ # O O O O O # o # $ $ O , =.@.@.",
"=.....=.Z < . - ; * * ; 2 1 ; * : : : : : % ; > ; *   & w =.@.=.",
"=.*.*.=.=.C # l m p 9 n P P m a 5 5 5 5 7 s k j n a @ 0 o.=.=.=.",
"=.=.=.=.=.{ = T ( K K ` ) ) / H d d d d g G ] U / H % B =.=.=.=.",
"=.=.=.%.+.{ = T ( K K ` ) ) / H d d d d g H ] ] ^ H % e @.=.@.=.",
"=.=.=.*.| [ = T ( K K ` ) ) / H d d d d g G ] U / H % r  .=.=.=.",
"=.=.=.*.+.{ = T ( K K ` ) ) ^ H d d d d g D Y ] ' H % t +.=.=.=.",
"=.=.=.=.=.{ = T ( A K ` ) ) / H d d d d g H ] ] / H % B =.=.=.=.",
"=.*.=.=.=.{ = R ( K K ` ) ) / H d d d d g D ] J ^ H % B =.=.=.=.",
"=.=.=.=.=.{ = T ( K K ` ) ) / H d d d d g ] J Y / H % B =.=.=.=.",
"=.=.=.=.=.{ = T ( K K ` ) ) / H d d d d g D ] ] ^ H % B @.=.=.=.",
"=.=.=.&.=.{ = T / K K ' ) ) / H d d d d g ] J Y / H % N @.=.=.=.",
"=.=.&...+.{ = T ( K K ' ) ) ^ H d d d d g S U G E H % q ..=.=.=.",
"=.=.=.=.=.{ = T _ K K ' ) ) / H d d d d f U H ` _ H % B =.=.&.=.",
"=.=.=.=.=.L * T / K K ` ) ) / H d d d d d V Y D Q H @ t @.=.=.=.",
"=.=.=.=.=.L = T ( K K ' ) ) ^ H d d d d f J J Y / H % t @.=.=.=.",
"=.=.=.=.=.[ * T ( K K ' ) ) / H d d d d d K Y H ` H % B @.&.=.=.",
"=.=.=.=.=.{ = T ( K K ` ) ) / H d d d d g ] J W / H % B %.@.@.=.",
"=...=.=.=.{ = T ( K K ` ) ) / H d d d d g A U H ` H % B @.X.#.=."
};
