/* XPM */
static char *_344d93c7f5b480eb5c64d04ce8a504cp7QgazZL95L5CCIi[] = {
/* columns rows colors chars-per-pixel */
"32 32 221 2 ",
"   c #8BC34A",
".  c #86BB51",
"X  c #6DB24D",
"o  c #88C24A",
"O  c #8AC24B",
"+  c #84BB4F",
"@  c #89C24A",
"#  c #80C047",
"$  c #8EC648",
"%  c #8AC349",
"&  c #88C04B",
"*  c #88C14B",
"=  c #70BA43",
"-  c #7CB94B",
";  c #8AC24A",
":  c #8CC449",
">  c #81BD4A",
",  c #77BA49",
"<  c #88BF4C",
"1  c #85C149",
"2  c #86BE4C",
"3  c #89C14B",
"4  c #7FBF47",
"5  c #8BC24B",
"6  c #85BF4C",
"7  c #79B64F",
"8  c #89C04C",
"9  c #83C148",
"0  c #88C249",
"q  c #7DBE47",
"w  c #89BF4D",
"e  c #8AC34A",
"r  c #81BE4A",
"t  c #6FB34D",
"y  c #83BB4D",
"u  c #89C14A",
"i  c #8FC944",
"p  c #75BE40",
"a  c #74B24E",
"s  c #8AC14B",
"d  c #7FC145",
"f  c #8DC548",
"g  c #85BE4D",
"h  c #89C24B",
"j  c #83BE4B",
"k  c #88C348",
"l  c #87C04B",
"z  c #6DAA56",
"x  c #83BA4F",
"c  c #83C542",
"v  c #88C446",
"b  c #6FBA42",
"n  c #82C147",
"m  c #82C048",
"M  c #7DB450",
"N  c #78BE42",
"B  c #87C14A",
"V  c #85BD4F",
"C  c #8AC447",
"Z  c #6DB14C",
"A  c #74B948",
"S  c #78BD46",
"D  c #86C149",
"F  c #87BD4D",
"G  c #84C148",
"H  c #80BF49",
"J  c #85BC4F",
"K  c #87BE4E",
"L  c #80BA4E",
"P  c #7FBA4E",
"I  c #7BB84E",
"U  c #82BE4A",
"Y  c #86C249",
"T  c #88C643",
"R  c #89C34A",
"E  c #8FC747",
"W  c #7ABE46",
"Q  c #62B146",
"!  c #75BD44",
"~  c #72BD42",
"^  c #88C04C",
"/  c #8BC24A",
"(  c #85C244",
")  c #88C14A",
"_  c #81BD4B",
"`  c #77B64E",
"'  c #72B150",
"]  c #7BBF44",
"[  c #87C249",
"{  c #89C14C",
"}  c #87C347",
"|  c #83C246",
" . c #89C349",
".. c #6EB24D",
"X. c #82B851",
"o. c #80BF47",
"O. c #7EBC49",
"+. c #80C441",
"@. c #8BCA3E",
"#. c #82C144",
"$. c #87BC4F",
"%. c #81B84E",
"&. c #87BC4E",
"*. c #86C04B",
"=. c #86C04A",
"-. c #8DC647",
";. c #7BB949",
":. c #88BD4E",
">. c #87BF4C",
",. c #7ABB48",
"<. c #7DBB4A",
"1. c #89C446",
"2. c #7FC143",
"3. c #84BD4C",
"4. c #90CC40",
"5. c #86BF4C",
"6. c #89C04B",
"7. c #88C04A",
"8. c #89C249",
"9. c #79B948",
"0. c #85BB4E",
"q. c #86BD4D",
"w. c #7DBF47",
"e. c #76BB47",
"r. c #82C146",
"t. c #7FBE48",
"y. c #8AC14C",
"u. c #81BC4C",
"i. c #8AC448",
"p. c #83C245",
"a. c #86BD4E",
"s. c #84BF4B",
"d. c #70B648",
"f. c #84BE4B",
"g. c #7BBC48",
"h. c #87BC51",
"j. c #70B649",
"k. c #7AB74C",
"l. c #84BE4C",
"z. c #83C147",
"x. c #70B748",
"c. c #72B64A",
"v. c #83BB4E",
"b. c #86BF4B",
"n. c #8DC549",
"m. c #7DB94E",
"M. c #74B54E",
"N. c #8DCD3C",
"B. c #7ABD47",
"V. c #7FBD4A",
"C. c #87C04A",
"Z. c #73B54D",
"A. c #87C04C",
"S. c #77C040",
"D. c #82C244",
"F. c #6FB14D",
"G. c #78BD45",
"H. c #76BC46",
"J. c #7AB251",
"K. c #8FC648",
"L. c #8CC44A",
"P. c #7FC045",
"I. c #6DB547",
"U. c #6AB14A",
"Y. c #70AF4F",
"T. c #73B54B",
"R. c #87BB4F",
"E. c #7EBB4B",
"W. c #80B94F",
"Q. c #85BE4B",
"!. c #82C245",
"~. c #91C945",
"^. c #8CC34A",
"/. c #84C246",
"(. c #82BF48",
"). c #79BA49",
"_. c #6EB944",
"`. c #81BE49",
"'. c #7AC043",
"]. c #88C346",
"[. c #78B749",
"{. c #8AC643",
"}. c #8BC349",
"|. c #81C047",
" X c #76B948",
".X c #64A754",
"XX c #63A951",
"oX c #87BE4D",
"OX c #6DB942",
"+X c #81B84F",
"@X c #87BD50",
"#X c #73B251",
"$X c #7BBE46",
"%X c #82C243",
"&X c #81BF49",
"*X c #76B949",
"=X c #8EC548",
"-X c #82C440",
";X c #6BB04D",
":X c #75B250",
">X c #7DBE48",
",X c #7EBE47",
"<X c #84BC4D",
"1X c #87BF4B",
"2X c #82BA50",
"3X c #6EAB55",
"4X c #85BC4E",
"5X c #86C14A",
"6X c #8EC844",
"7X c #84C443",
"8X c #79B94A",
"9X c #6CAE50",
"0X c #62A851",
"qX c #7FB850",
"wX c #6AB348",
"eX c #80B551",
"rX c #81C048",
"tX c #89BF4C",
"yX c #7EBC4A",
"uX c #68A954",
"iX c #83B751",
/* pixels */
"  . X o                                                         ",
"  O + @                         # O                 $           ",
"        % %           & *       = -     ; &   *     :           ",
"        > , <         O ;       1 2   O 3     3       4 4 5     ",
"        6 7 8           9 0 q w         e             r t y     ",
"        u               i p a s       O 3   d     f   ; g 8     ",
"    h ; j           k   l z x         c v b n m e               ",
"  *   ; M         O N B         V     C q Z A S D               ",
"        F G e     w H 2       ; J     K L P I U O           $   ",
"      e   Y T R G e                                 f E e       ",
"      # W r Q ! ~ 9         ^ O               O /     ( - s     ",
"      ) _ ` ' @ ] G   [ 9   { O   }       |  .8 5     ..X./     ",
"                      o.O.        +.@     @.#.$.      B O       ",
"  %.&.        e       B *.        =.;     -.;.:.    : ;     8 >.",
"  ,.<.;     : 1.2.3.          @ ;           =.      4.5.    6.3 ",
"  7.&         8.9.0.            e             6.q.  0 3         ",
"            B e             w.e.    >.O                         ",
"      r.t.y.@ ) :           =.u.    8 s             i.p.@   a.  ",
"      s.d.f.                            | e g.O     h.j.k.      ",
"      ^ l.3     o.m           %   R     z.x.c.:.    O v.b.      ",
"      n.        m.M.    % %   N.  B.V.: C.Z.L O ;               ",
"e A.h :                  .S.D.F.G.H.J.5       e @     K.L.O   $ ",
"                          P.I.U.Y.T.R.s         e       e h ;   ",
"              e :         D E.u.W.Q.            !.k   %     ;   ",
"    C C     ; l   : ~.            ^.:       /.(.)._.`.'.>.O     ",
"  ; ].[.R.        L.{.[             }.;     |. X.XXXoXOX+X      ",
"                  @X#X$X              f :                   E   ",
"  O       %X&X*Xs           0         =X:             3 u       ",
"  O       -X;X:Xs     :   >X,X          9 e         ; <X1X      ",
"          2X3X4X    e :   &X5Xn.    9 8.6X7X9 $X:.y.            ",
"                    l F       f     t.8X9X0XqXwXeX5     [ rXtX  ",
"  yXB                               h 3 5.+ e =.8       ; uXiX  "
};
