/* XPM */
static char *e542caaffaaa48c8d23b2e6289838022cmUvheL22dRplGdb[] = {
/* columns rows colors chars-per-pixel */
"32 32 26 1 ",
"  c #34B134",
". c #33B033",
"X c #33AF33",
"o c #34B034",
"O c #32AE32",
"+ c #32AD32",
"@ c #33AE33",
"# c #2FA92F",
"$ c #30AA30",
"% c #32AF32",
"& c #31AC31",
"* c #30AB30",
"= c #2FA82F",
"- c #31AD31",
"; c #31AB31",
": c #2EA72E",
"> c #2FA72F",
", c #30A930",
"< c #2DA52D",
"1 c #2EA62E",
"2 c #2CA32C",
"3 c #2FAA2F",
"4 c #2BA22B",
"5 c #2CA42C",
"6 c #32AC32",
"7 c #2DA42D",
/* pixels */
" .XooO. +. O. @. .XooO. +. O. @.",
"#XO#.+$%&+O&X*+X#XO#.+$%&+O&X*+X",
"O=.+$O++-%X$..=.O=.+$O++-%X$..=.",
" +.o+..X..oO. +. +.o+..X..oO. +.",
"&O+-X*OX$XO$X-;%&O+-X*OX$XO$X-;%",
"$O.#XX#.O&X+O++.$O.#XX#.O&X+O++.",
" #.o$..+%.X&. $. #.o$..+%.X&. $.",
".+&oX# .: .>o.,O.+&oX# .: .>o.,O",
":X.<o.1.X$XX+$X.:X.<o.1.X$XX+$X.",
"o2..<%o$-o+=. <.o2..<%o$-o+=. <.",
"o+&oX#o.>o.=o.$Oo+&oX#o.>o.=o.$O",
"< .2 .<X.3+.-=o.< .2 .<X.3+.-=o.",
".4..5Oo,&o+: o2..4..5Oo,&o+: o2.",
" XOo.&o *. ;. 6X XOo.&o *. ;. 6X",
"<..7o.1XX*-.+=..<..7o.1XX*-.+=..",
"X7.X1OX*&.O:..<.X7.X1OX*&.O:..<.",
" .XooO. +. O. @. .XooO. +. O. @.",
"#XO#.+$%&+O&X*+X#XO#.+$%&+O&X*+X",
"O=.+$O++-%X$..=.O=.+$O++-%X$..=.",
" +.o+..X..oO. +. +.o+..X..oO. +.",
"&O+-X*OX$XO$X-;%&O+-X*OX$XO$X-;%",
"$O.#XX#.O&X+O++.$O.#XX#.O&X+O++.",
" #.o$..+%.X&. $. #.o$..+%.X&. $.",
".+&oX# .: .>o.,O.+&oX# .: .>o.,O",
":X.<o.1.X$XX+$X.:X.<o.1.X$XX+$X.",
"o2..<%o$-o+=. <.o2..<%o$-o+=. <.",
"o+&oX#o.>o.=o.$Oo+&oX#o.>o.=o.$O",
"< .2 .<X.3+.-=o.< .2 .<X.3+.-=o.",
".4..5Oo,&o+: o2..4..5Oo,&o+: o2.",
" XOo.&o *. ;. 6X XOo.&o *. ;. 6X",
"<..7o.1XX*-.+=..<..7o.1XX*-.+=..",
"X7.X1OX*&.O:..<.X7.X1OX*&.O:..<."
};
