/* XPM */
static char *bd5267ef005d4c35d3c3aaba0ede35eao8OTx1PfHYxx7JMg[] = {
/* columns rows colors chars-per-pixel */
"32 32 179 2 ",
"   c #080401",
".  c #140A02",
"X  c #1E0F03",
"o  c #1A1102",
"O  c #1D140E",
"+  c #170F1A",
"@  c #230A03",
"#  c #3B0000",
"$  c #211303",
"%  c #2D1503",
"&  c #291C08",
"*  c #371A05",
"=  c #331E0F",
"-  c #361904",
";  c #24081A",
":  c #2E200C",
">  c #3C2707",
",  c #34250E",
"<  c #372614",
"1  c #101029",
"2  c #090437",
"3  c #280039",
"4  c #3B352A",
"5  c #333333",
"6  c #570000",
"7  c #411B05",
"8  c #481A17",
"9  c #521D1B",
"0  c #4A0504",
"q  c #700000",
"w  c #6F150A",
"e  c #7E1B1B",
"r  c #4D2405",
"t  c #452A07",
"y  c #4D3107",
"u  c #7D2A1F",
"i  c #4B0037",
"p  c #4D3F2C",
"a  c #403627",
"s  c #5E3E3D",
"d  c #7E2E2E",
"f  c #652C28",
"g  c #31531B",
"h  c #3B452D",
"j  c #3B4D2E",
"k  c #3A7632",
"l  c #6A6A1F",
"z  c #676508",
"x  c #53532E",
"c  c #4B4132",
"v  c #554834",
"b  c #554327",
"n  c #62523C",
"m  c #64723D",
"M  c #01004B",
"N  c #00005C",
"B  c #16005C",
"V  c #310057",
"C  c #222250",
"Z  c #1A0067",
"A  c #020079",
"S  c #110571",
"D  c #181871",
"F  c #474747",
"G  c #5F5444",
"H  c #5B5555",
"J  c #5C4947",
"K  c #615953",
"L  c #7E5353",
"P  c #457F40",
"I  c #68635F",
"U  c #7B6A51",
"Y  c #766749",
"T  c #5B5B7B",
"R  c #6D6D6D",
"E  c #636463",
"W  c #717171",
"Q  c #797979",
"!  c #787676",
"~  c #8A0000",
"^  c #830000",
"/  c #950000",
"(  c #9E0000",
")  c #910F0B",
"_  c #82120D",
"`  c #890010",
"'  c #801010",
"]  c #A30000",
"[  c #B40000",
"{  c #BA0000",
"}  c #82241D",
"|  c #922020",
" . c #863933",
".. c #C50001",
"X. c #DA0202",
"o. c #E40101",
"O. c #EF0000",
"+. c #F30000",
"@. c #FE0000",
"#. c #836E50",
"$. c #956F50",
"%. c #867352",
"&. c #8A7554",
"*. c #8A775A",
"=. c #917A58",
"-. c #309F2D",
";. c #369D31",
":. c #3E9634",
">. c #2DA52D",
",. c #2FA92F",
"<. c #34A533",
"1. c #32AD32",
"2. c #3BA53B",
"3. c #3BAC3B",
"4. c #38A333",
"5. c #33B033",
"6. c #3BB23B",
"7. c #41972F",
"8. c #40B13F",
"9. c #549548",
"0. c #6D924E",
"q. c #73954E",
"w. c #7E8B52",
"e. c #46AE46",
"r. c #46A046",
"t. c #45B745",
"y. c #4BB24B",
"u. c #4FBA4F",
"i. c #56A855",
"p. c #6E996E",
"a. c #61AC61",
"s. c #71B466",
"d. c #A3A313",
"f. c #C6C613",
"g. c #878760",
"h. c #9D8460",
"j. c #AE936A",
"k. c #BB9D72",
"l. c #C1A376",
"z. c #C4A578",
"x. c #CEAD7E",
"c. c #04008A",
"v. c #141483",
"b. c #070798",
"n. c #15159A",
"m. c #0000AB",
"M. c #0909AC",
"N. c #2424AD",
"B. c #5D5D8D",
"V. c #4646B1",
"C. c #0202C3",
"Z. c #0000CA",
"A. c #0000DC",
"S. c #0000E7",
"D. c #0000ED",
"F. c #0000F5",
"G. c gray55",
"H. c #969691",
"J. c #BE8884",
"K. c #A79F9F",
"L. c #B28F8C",
"P. c #8FA099",
"I. c gray68",
"U. c gray74",
"Y. c gray70",
"T. c #D3B281",
"R. c #DBB986",
"E. c #DFBC88",
"W. c #E1BE8A",
"Q. c #E5C18C",
"!. c #EAC58F",
"~. c #EFC992",
"^. c #ECC790",
"/. c #F2CC94",
"(. c #D7D7D7",
"). c #C6C6C6",
"_. c #EEEEEE",
"`. c #FBFBFB",
"'. c #F1F1F1",
/* pixels */
"5.5.1.5.5.1.5.5.5.5.5.5.5.5.1.5.5.1.5.5.5.1.5.5.1.5.5.5.5.5.5.5.",
"1.1.1.1.5.1.1.1.,.1.1.,.5.,.1.6.4.4.4.;.5.1.,.5.1.1.1.1.5.,.1.1.",
"1.,.5.1.1.1.1.1.1.5.5.,.5.5.:.w @.@.] / e 1.1.1.1.1.5.,.5.5.,.5.",
"5.1.1.5.1.5.5.1.5.5.5.1.5.m o.@.+.w u L.s 8  .5.5.5.5.1.5.5.1.5.",
"1.1.1.1.1.1.1.1.,.5.1.,.Y X.@.@.( K.f J.W L.9 s.,.1.1.,.5.1.,.5.",
",.1.1.1.1.5.1.5.5.,.5.r.[ @.@.+.# F 9 s 5 J 8 H 1.1.5.1.1.1.1.5.",
"5.,.1.5.1.1.1.1.5.5.5.7.o.+./ q ................' 6.5.1.5.5.,.5.",
"5.1.1.5.1.1.5.1.,.5.5.+.+.( { @.@.{ ] ] ] ( ] ( d 5.5.,.5.5.,.1.",
",.1.5.>.1.5.>.1.1.2.g +.^ ..@.6 # $.k.k.k.k.c 6.5.1.1.5.1.1.1.5.",
"5.>.5.5.>.1.5.1.1...+.[ ~ ] u T.^.c R.^.h.4 4 p.1.5.1.,.5.5.>.5.",
"5.1.1.1.5.1.5.1.,.o.) _ - $ U ~./.v R.k.%.=.*.*.5.5.5.,.5.5.,.1.",
">.5.1.>.5.5.>.1.5.-.k.z.b t : x./.E.~.Q.!././.~.U ,.1.5.1.,.5.5.",
"5.>.5.5.>.1.5.1.1.q.x.%.=., . x.z.#.#.%.T.~./.W.9.5.1.>.5.5.>.1.",
"5.1.1.5.5.1.5.5.,.0.Q.=.z.z.k.!.#.& > > b k.z.9.,.5.5.1.5.5.1.5.",
">.5.5.>.5.5.>.1.1.1.0.%.w.Q././.j.< y y t < P 5.5.1.1.5.1.,.5.1.",
"1.>.5.1.>.1.5.1.1.5.1.<.i.G v n /.k.& o o k 1.,.1.5.1.>.5.5.>.5.",
"5.5.5.5.5.5.5.5.1.5.5.5.8.9 Z M @ 0 c.B.5.1.5.5.1.5.5.5.5.5.5.5.",
",.5.1.,.5.1.,.1.1.1.5.e.| +...B V ..` S B.5.,.5.1.1.1.1.1.,.1.5.",
"1.,.5.1.1.1.1.1.1.1.1.E / o.@.; A.3 { i b.B.1.1.1.1.5.,.5.5.,.5.",
"5.1.5.1.1.5.5.5.5.5.6.F ! L ~ S C.x z A F.N.g.1.5.5.5.1.5.5.1.5.",
"1.1.1.1.1.1.1.1.,.5.Q (.`.'.E C.c.d.f.c.F.V.l 5.,.1.1.,.1.1.1.5.",
"1.1.1.,.5.1.,.5.1.W U.(.).'.'.C D.v.D S.F.M.H.H 5.1.5.1.1.1.1.5.",
"5.,.5.5.1.5.5.1.5.E Y.G.E I.R 1 F.F.F.F.F.m.F 5 5.5.1.1.5.5.,.5.",
"5.1.1.5.1.,.5.5.,.Q U.`.`.`.R Z.F.F.F.F.D.b.G.E >.5.5.,.5.5.,.1.",
">.5.5.>.5.5.>.5.5.1.H.W W W 5 N m.F.F.D.n.P.a.1.5.,.1.5.1.,.5.5.",
"1.>.5.5.>.1.5.1.1.5.1.E X % % - ; 2 2 2 + E 6.1.1.5.1.,.5.5.>.5.",
"5.1.1.1.1.,.1.5.>.5.5.K X X @ r * o - r r * e.1.,.5.5.,.5.5.,.1.",
">.5.5.>.5.5.>.5.5.,.1.= r r r r r r . r r * 2.1.5.,.1.5.1.,.5.5.",
"1.>.5.5.>.1.5.1.1.5.1.= r r r r r r . r r < y.1.1.5.1.>.5.5.>.5.",
"5.5.1.5.5.1.5.1.1.5.5.O * r r r r -   $ < 3.1.1.,.5.5.1.5.5.1.1.",
">.5.5.>.5.5.>.5.5.,.1.2.4 h h j h i.y.<.5.5.>.5.5.,.1.5.1.,.5.5.",
"1.>.5.1.>.1.1.1.1.5.1.1.t.u.3.t.6.>.5.1.>.1.5.,.1.5.1.,.1.5.>.5."
};
