/* XPM */
static char *_25fabb3916f4135ee31927ce3bc9354Q5VZ2tUouC8JlP4v[] = {
/* columns rows colors chars-per-pixel */
"50 50 9 1 ",
"  c #C4551D",
". c #A84919",
"X c gray1",
"o c #56260E",
"O c #4A210D",
"+ c #713212",
"@ c #321709",
"# c #421E0B",
"$ c #622B10",
/* pixels */
"                     .XXX                     .XXX",
"                     .XXX                     .XXX",
"                     .XXX                     .XXX",
"                     .XXX                     .XXX",
"                     .XXX                     .XXX",
"                     .XXX                     .XXX",
"                     .XXX                     .XXX",
"                     .XXX                     .XXX",
"                     .XXX                     .XXX",
"oooooooooooooooooooooOXXXoooooooooooooooooooooOXXX",
"XXXXXXXXXXXXXXXXXXXXXXXXXXXXXXXXXXXXXXXXXXXXXXXXXX",
"XXXXXXXXXXXXXXXXXXXXXXXXXXXXXXXXXXXXXXXXXXXXXXXXXX",
"+++++++++@XX#+++++++++++++++++++++@XX#++++++++++++",
"         oXX+                     oXX+            ",
"         oXX+                     oXX+            ",
"         oXX+                     oXX+            ",
"         oXX+                     oXX+            ",
"         oXX+                     oXX+            ",
"         oXX+                     oXX+            ",
"         oXX+                     oXX+            ",
"         oXX+                     oXX+            ",
".........OXX$.....................OXX$............",
"XXXXXXXXXXXXXXXXXXXXXXXXXXXXXXXXXXXXXXXXXXXXXXXXXX",
"XXXXXXXXXXXXXXXXXXXXXXXXXXXXXXXXXXXXXXXXXXXXXXXXXX",
"XXXXXXXXXXXXXXXXXXXXXXXXXXXXXXXXXXXXXXXXXXXXXXXXXX",
"                     .XXX                     .XXX",
"                     .XXX                     .XXX",
"                     .XXX                     .XXX",
"                     .XXX                     .XXX",
"                     .XXX                     .XXX",
"                     .XXX                     .XXX",
"                     .XXX                     .XXX",
"                     .XXX                     .XXX",
"                     .XXX                     .XXX",
"oooooooooooooooooooooOXXXoooooooooooooooooooooOXXX",
"XXXXXXXXXXXXXXXXXXXXXXXXXXXXXXXXXXXXXXXXXXXXXXXXXX",
"XXXXXXXXXXXXXXXXXXXXXXXXXXXXXXXXXXXXXXXXXXXXXXXXXX",
"+++++++++@XX#+++++++++++++++++++++@XX#++++++++++++",
"         oXX+                     oXX+            ",
"         oXX+                     oXX+            ",
"         oXX+                     oXX+            ",
"         oXX+                     oXX+            ",
"         oXX+                     oXX+            ",
"         oXX+                     oXX+            ",
"         oXX+                     oXX+            ",
"         oXX+                     oXX+            ",
".........OXX$.....................OXX$............",
"XXXXXXXXXXXXXXXXXXXXXXXXXXXXXXXXXXXXXXXXXXXXXXXXXX",
"XXXXXXXXXXXXXXXXXXXXXXXXXXXXXXXXXXXXXXXXXXXXXXXXXX",
"XXXXXXXXXXXXXXXXXXXXXXXXXXXXXXXXXXXXXXXXXXXXXXXXXX"
};
