/* XPM */
static char *b8a43eab87ba43799518d3b3edce4b5bkjJFPH7MAkC12WrM[] = {
/* columns rows colors chars-per-pixel */
"32 32 17 1 ",
"  c #C4551D",
". c #B64F1B",
"X c gray1",
"o c #A94919",
"O c #9D4418",
"+ c #2D1509",
"@ c #2A1308",
"# c #1F0F07",
"$ c #1B0D06",
"% c #090604",
"& c #070504",
"* c #1C0E06",
"= c #AF4C1A",
"- c #974217",
"; c #281308",
": c #1D0E07",
"> c #A34719",
/* pixels */
"             .XX             .XX",
"             .XX             .XX",
"             .XX             .XX",
"             .XX             .XX",
"             .XX             .XX",
"oooooooooooooOXXoooooooooooooOXX",
"+++++++++++++@XX+++++++++++++@XX",
"#####$%&*############$%&*#######",
"=====-;*O============-;*O=======",
"     o+#=            o+#=       ",
"     o+#=            o+#=       ",
"     o+#=            o+#=       ",
"     o+#=            o+#=       ",
".....O@:>............O@:>.......",
"XXXXXXXXXXXXXXXXXXXXXXXXXXXXXXXX",
"XXXXXXXXXXXXXXXXXXXXXXXXXXXXXXXX",
"             .XX             .XX",
"             .XX             .XX",
"             .XX             .XX",
"             .XX             .XX",
"             .XX             .XX",
"oooooooooooooOXXoooooooooooooOXX",
"+++++++++++++@XX+++++++++++++@XX",
"#####$%&*############$%&*#######",
"=====-;*O============-;*O=======",
"     o+#=            o+#=       ",
"     o+#=            o+#=       ",
"     o+#=            o+#=       ",
"     o+#=            o+#=       ",
".....O@:>............O@:>.......",
"XXXXXXXXXXXXXXXXXXXXXXXXXXXXXXXX",
"XXXXXXXXXXXXXXXXXXXXXXXXXXXXXXXX"
};
