/* XPM */
static char *_1dd10b6edae44519f58ca3ce9dc1a9eVRsm4mC7qnPo0mSp[] = {
/* columns rows colors chars-per-pixel */
"32 32 151 2 ",
"   c #010101",
".  c #0B0B0B",
"X  c #120101",
"o  c #1F0102",
"O  c #151515",
"+  c #1B1B1B",
"@  c #230202",
"#  c #360102",
"$  c #242425",
"%  c gray17",
"&  c #342D2D",
"*  c #343434",
"=  c #3A3A3A",
"-  c #420203",
";  c #5B0304",
":  c #690302",
">  c #720203",
",  c #780404",
"<  c #710A0B",
"1  c #671211",
"2  c #661D1E",
"3  c #532727",
"4  c #316831",
"5  c #414141",
"6  c #4A4A4A",
"7  c gray33",
"8  c #5C5C5C",
"9  c gray38",
"0  c #686363",
"q  c #6D6D6D",
"w  c #716363",
"e  c #737373",
"r  c gray49",
"t  c #8E0303",
"y  c #920202",
"u  c #9B0303",
"i  c #990E0E",
"p  c #AC0303",
"a  c #BF0303",
"s  c #C20202",
"d  c #CE0303",
"f  c #D20B0B",
"g  c #E60607",
"h  c #F40303",
"j  c #FD0101",
"k  c #FC0708",
"l  c #FA0D0D",
"z  c #F61615",
"x  c #FA1213",
"c  c #FA1B1B",
"v  c #CB3534",
"b  c #FA2727",
"n  c #FA2C2C",
"m  c #FA302F",
"M  c #F93333",
"N  c #F63B3A",
"B  c #F93B3B",
"V  c #BD6C6C",
"C  c #D55C5C",
"Z  c #F84545",
"A  c #F64A4A",
"S  c #F94C4B",
"D  c #F95555",
"F  c #FA5F5E",
"G  c #F8696A",
"H  c #F77575",
"J  c #F77877",
"K  c #329832",
"L  c #2DA52D",
"P  c #2FA92F",
"I  c #30A330",
"U  c #32AD32",
"Y  c #38AD38",
"T  c #33B033",
"R  c #39B239",
"E  c #4CAF4C",
"W  c #43B443",
"Q  c #4BB04B",
"!  c #5FAF5F",
"~  c #57B157",
"^  c #52BB52",
"/  c #5CB55C",
"(  c #65AB65",
")  c #60B660",
"_  c #60BB60",
"`  c #6BB36B",
"'  c #72B273",
"]  c #5FC05F",
"[  c #73C673",
"{  c #848484",
"}  c gray55",
"|  c #9A8787",
" . c #949494",
".. c #9A9A9A",
"X. c #BB8B8B",
"o. c #86AE85",
"O. c #8AAF8A",
"+. c #96A896",
"@. c #9CBA9C",
"#. c #A0A0A0",
"$. c #ABABAB",
"%. c #AFB5AF",
"&. c #B7B7B7",
"*. c #BCBCBC",
"=. c #F78383",
"-. c #FA8887",
";. c #F9898A",
":. c #F99494",
">. c #FA9E9E",
",. c #FBA4A4",
"<. c #F7B3B3",
"1. c #F7BCBC",
"2. c #A7CCA7",
"3. c #C1C1C1",
"4. c #CBCBCB",
"5. c #C1D7C1",
"6. c #D0D0D0",
"7. c #DADADA",
"8. c #F3C8C7",
"9. c #F9C8C7",
"0. c #FCCCCC",
"q. c #FBC4C4",
"w. c #FCD2D2",
"e. c #FBDCDB",
"r. c #E2E2E2",
"t. c #FCE1E1",
"y. c #F3EFEF",
"u. c #FDEFEF",
"i. c #FCF0EF",
"p. c #F3F3F3",
"a. c #FDF6F5",
"s. c #FDF7F7",
"d. c #FDF5F5",
"f. c #FCF1F1",
"g. c #FBFBFB",
"h. c #FEF9F9",
"j. c #FEFAF9",
"k. c #FFFAFB",
"l. c #FDFDFD",
"z. c #FEFDFD",
"x. c #FFFCFC",
"c. c #FDFEFF",
"v. c #FEFEFE",
"b. c #FFFEFE",
"n. c #FEFFFE",
"m. c #FEFEFF",
"M. c #FEFFFF",
"N. c white",
"B. c #FFFFFF",
"V. c #FEFEFD",
"C. c #FEFEFE",
/* pixels */
"T T U T T U T T U U T U T T T T T T U T T U T T U T T T T T T T ",
"U U U U T U U U U U U Y R Q ' ` Q ) ~ ! Y U P T U U U U T P U T ",
"U P T U U U U U U U ..                    e U U U U T P T T P U ",
"T U U T U T U #. . .9   = 0 2 : : 1 0 6   5  . ...T T U T T U T ",
"U U U U U U U K         } B.Z j j b u.&.        + T U P T U P T ",
"P U U P U  .9 O +  .....6.B.Z j j b u.r. ... .* . 7 { U U U U T ",
"T P U R W 8     * g.B.B.B.x.Z j j b f.g.B.B.B.8     * U T T P T ",
"T U U #.= O   u v g.B.B.:.B l j j k B H B.B.B.C p @ . * { T P T ",
"P U R {   + & f n 0.w.w.F j j j j j j N w.w.w.A g 3 $   9 U T T ",
"T L R }   ..y.M j l l l k j j j j j j k l l l j c 8.3.O 9 T L T ",
"T T +.9 . #.B.J Z j j j m D D D D D D B j j j B G t.4.+ 5 $.P U ",
"L T .     +.l.s.q.k j j -.a.a.a.d.s.d.<.j j j >.h.B.4.O   . } T ",
"T I   = { 6.B.l.0.k M =.q.B.B.l.B.B.B.e.=.A j ,.B.B.r.} 7   } U ",
"T Q   e B.B.l.B.9.k F s.B.B.l.B.B.x.l.l.l.;.j ,.B.B.B.B...  } U ",
"L `   e B.B.B.l.0.k F g.B.B.l.l.l.B.B.l.B.;.j ,.B.B.B.B...   .T ",
"T (   e B.B.B.B.9.k F g.B.B.B.B.B.B.B.B.B.;.j ,.B.B.B.B...  } T ",
"U /   e B.B.B.A c j F g.B.B.B.B.B.B.B.B.B.;.j z N w.B.B...  } T ",
"P `   w e.e.e.n j j D e.u.B.B.B.B.B.B.a.e.H j j c 1.e.e.|   } U ",
"U o.  < x x x j j j k x :.B.B.B.B.B.B.1.x l j j j l z x i    .U ",
"T o.  > j j j d s s a a V 3.3.3.3.3.3.X.a a a s s h j j u    .T ",
"U `   > j j h #                                 o d j j u   } U ",
"P `   - y y y o O q q q *   6 q q 8 . + q q q % X , y y ;   } U ",
"T O.            * g.B.B.e   *.l.B.7.. 6 B.B.B.8             } T ",
"T R ..7       r $.B.B.B.e   *.B.B.7.. 6 B.B.B.*.} +     = ..P U ",
"P U W  .O .   4.B.l.B.l.r + 3.l.B.7.$ 7 B.B.B.B.r.%   O q U T T ",
"U L U W @.6   6.l.B.l.B.r.4.y.l.B.g.4.7.B.B.B.B.r.% % %._ T L T ",
"T U U R [ 8   $.7.B.l.B.l.l.B.B.B.B.B.B.B.B.B.r.*.$ * 5.] T U U ",
"P T U L ^ 7   + 6 g.B.B.B.l.B.B.B.B.B.B.B.B.B.q + . * 2.W P T U ",
"T L T T L  .7 O + ............ ....... ..... .* . 6 e / T T L T ",
"T U U T T U T 4                                 + _ W P U T U U ",
"L T T L T T L +.}  . .} }  . . .} }  . .} }  . ...U U T U P T T ",
"U L T U P U Y I P T T L U U L T T L T U L U T P U T U P U T L T "
};
