/* XPM */
static char *c652b9a2382b4e77fb6d1a9260a1a61dv7GUtA2CVNCYTl7r[] = {
/* columns rows colors chars-per-pixel */
"32 32 202 2 ",
"   c #302F1F",
".  c #3B1F25",
"X  c #1D2A3F",
"o  c #232222",
"O  c #2A2525",
"+  c #2C2A24",
"@  c #2E2A29",
"#  c #312C2B",
"$  c #352D27",
"%  c #2F3627",
"&  c #313131",
"*  c #3F3835",
"=  c #302D32",
"-  c #431E26",
";  c #4A1F28",
":  c #571D29",
">  c #463734",
",  c #4F362F",
"<  c #74322A",
"1  c #731B2D",
"2  c #38462B",
"3  c #6D631A",
"4  c #7B6F1A",
"5  c #5B4239",
"6  c #454730",
"7  c #63463D",
"8  c #66483E",
"9  c #6C522D",
"0  c #4B6232",
"q  c #4D6A33",
"w  c #536A33",
"e  c #597637",
"r  c #6C742B",
"t  c #1C2C42",
"y  c #17386C",
"u  c #4D3F40",
"i  c #4F3070",
"p  c #354979",
"a  c #374A71",
"s  c #5A4441",
"d  c #4B4142",
"f  c #6D4C41",
"g  c #654A48",
"h  c #765654",
"j  c #7C4249",
"k  c #756E4B",
"l  c #494F74",
"z  c #755B75",
"x  c #407E7A",
"c  c #706A6A",
"v  c #506C50",
"b  c #991736",
"n  c #A81635",
"m  c #B41536",
"M  c #BB1839",
"N  c #982835",
"B  c #B8283B",
"V  c #C51438",
"C  c #CB153A",
"Z  c #D3163C",
"A  c #DC163E",
"S  c #E2173F",
"D  c #DF3830",
"F  c #95523B",
"G  c #AF433C",
"H  c #95683B",
"J  c #8C793B",
"K  c #8B6C14",
"L  c #9A2847",
"P  c #A12942",
"I  c #E61740",
"U  c #DA2D41",
"Y  c #D32D44",
"T  c #8D5F5B",
"R  c #AA5258",
"E  c #92615E",
"W  c #967441",
"Q  c #954660",
"!  c #976561",
"~  c #866D6E",
"^  c #B76E73",
"/  c #C94754",
"(  c #DF4E46",
")  c #D04864",
"_  c #E14C64",
"`  c #D86B72",
"'  c #C47E78",
"]  c #CE726F",
"[  c #E46972",
"{  c #65893B",
"}  c #5C8746",
"|  c #729D41",
" . c #6F9D40",
".. c #69A545",
"X. c #7AA944",
"o. c #6CB449",
"O. c #7DBD46",
"+. c #73B64A",
"@. c #79B74C",
"#. c #7CBB4A",
"$. c #7CB446",
"%. c #65A853",
"&. c #78B350",
"*. c #70A85D",
"=. c #478079",
"-. c #639C66",
";. c #7DC143",
":. c #898215",
">. c #978C10",
",. c #9D910F",
"<. c #AA9D0E",
"1. c #BAAC0C",
"2. c #B3B732",
"3. c #F68C17",
"4. c #AD9259",
"5. c #83BA47",
"6. c #84BD4C",
"7. c #8BBE4C",
"8. c #87B548",
"9. c #91B84F",
"0. c #84BA51",
"q. c #82B651",
"w. c #93B351",
"e. c #91AC4F",
"r. c #888977",
"t. c #AB8E65",
"y. c #A89562",
"u. c #B99366",
"i. c #B3806C",
"p. c #B5A670",
"a. c #99AE65",
"s. c #C5866C",
"d. c #CB847C",
"f. c #82C244",
"g. c #8BC546",
"h. c #86C14A",
"j. c #8BC34A",
"k. c #90CC40",
"l. c #9BCB62",
"z. c #F7CE52",
"x. c #0E5396",
"c. c #1B4E99",
"v. c #306A88",
"b. c #0D4CA3",
"n. c #0A5FA9",
"m. c #1052A5",
"M. c #096DAD",
"N. c #0D77AB",
"B. c #466680",
"V. c #9B7F81",
"C. c #8F6D84",
"Z. c #CC7E8B",
"A. c #E67486",
"S. c #3C8583",
"D. c #039CBC",
"F. c #0F91B0",
"G. c #05A8BD",
"H. c #5D9181",
"J. c #799C97",
"K. c #01ADC1",
"L. c #19B5C9",
"P. c #30BDCE",
"I. c #4FCBDB",
"U. c #66C6D5",
"Y. c #7BDBE8",
"T. c #BC999D",
"R. c #BBAC85",
"E. c #9DABA3",
"W. c #B3B2AD",
"Q. c #D58782",
"!. c #C59989",
"~. c #DB9184",
"^. c #DB958E",
"/. c #D39A9A",
"(. c #E5938C",
"). c #EE9791",
"_. c #F09791",
"`. c #F19A94",
"'. c #CAA697",
"]. c #EDB09E",
"[. c #C9A3A7",
"{. c #D5BAAE",
"}. c #D5BBB7",
"|. c #D0ADAC",
" X c #F6B8BA",
".X c #F0ACAC",
"XX c #DDC4BC",
"oX c #EABDC1",
"OX c #82CDDB",
"+X c #82D2DF",
"@X c #80DEEA",
"#X c #82DBE6",
"$X c #D7C8C2",
"%X c #D3D1D1",
"&X c #CCCAC9",
"*X c #F7C5C8",
"=X c #FCD8DA",
"-X c #E3D3CC",
";X c #DCEBC8",
":X c #EDE3DF",
">X c gray98",
",X c #F6F3F2",
/* pixels */
"j.0.o.j.j.j.j.j.j.j.j.j.l.;XR N B Y U z.( U P F j.j.j.j.j.j.j.j.",
"j.j.6.j.j.j.j.j.j.j.j.j.9.^ Y C C D 3.z.]._ A G j.j.g.j.j.j.j.j.",
"j.j.j.j.j.j.j.j.j.j.j.e.H B Z Z m < K J r.j 1 < e 7.g.j.j.j.j.j.",
"j.j.j.j.#.@.7.j.j.g.8.H B Z n b : o o O o o o o % { j.5.h.j.j.j.",
"j.j.j.j.h.&.j.j.j.8.W m Z V - o o o o o o o o o o o j.6.+.6.j.j.",
"j.j.j.j.j.j.j.j.6.H n C m - o O # % & + = + o o o + j.j.6.j.j.j.",
"j.j.j.j.h.j.j.j.7.H n C m - o T |.%X%Xd.&Xa.q o %  .j.j.j.j.j.j.",
"j.j.j.j.&.j.j.j.7.4.A.Q.: o ! Q.*X&Xc .Xc W.-.* { 6.j.j.j.j.j.j.",
"j.j.j.j.6.h.j.j.a.s.(.[.> o Z..X=XW.& *Xu W.W.k g.g.j.j.j.j.j.j.",
"j.j.j.j.j.h.g.j.u.] d.'.* o T |.:X}.h  X~ }.{.t.j.j.j.k.j.j.j.j.",
"j.j.j.;.#.6.o.#.4.s.d.d.s O u T.oX|.(.`. X*X].t.9.j.j.h.#.j.j.j.",
"j.j.j.j.#.+.o.j.g.p._.`.' > [.*XV.s ^ ).`.`._.~.t.j.j.&.0.j.j.j.",
"j.j.j.j.j.j.j.j.g.e @ 5 Q.(.`.h # O O @ @ @ @ + 2 q.j.h.j.j.j.j.",
"j.q.0.j.j.j.j.j.j.$.e @ g Q._./.[.V.# O O O O 2 X.j.j.j.j.j.j.j.",
"j.@.#.j.j.j.j.g.f.6.X.0 > d.).]..X/.! E E E k { 7.j.k.h.j.j.j.0.",
"j.j.j.j.j.j.j.j.#.6.$.e > T ` [ ` ` ` ~.~.~.p.7.6.j.j.j.j.j.j.j.",
"j.j.j.j.j.j.h.j.7.X.w o . ; m V m n P !.!.R.p.w.7.j.j.j.j.j.j.j.",
"j.j.j.f.O.j.j.7.j.w O : b A I M M / R.>X>X>X$Xp.w.j.j.h.j.j.h.j.",
"j.j.j.h.+.6.j.j.j.w . b V A I S Y !.:X>X>X>X,X$Xy.9.h.+.&.j.j.j.",
"j.j.j.6.6.j.j.j.h.w ; n V Z S I / '.,X>X>X>X>X:Xt.7.j.0.h.j.j.j.",
"j.j.j.j.j.j.j.j.@.0 X i n C Z I A.$X'.>X>X>X-XR.w.j.j.j.j.j.j.j.",
"j.h.j.j.j.j.j.7. .r r c.l L V Z ) Z.R }.{.{.R.a.j.j.j.j.j.j.j.j.",
"j.j.j.j.j.j.j.6.0 >.2.n.F.x n m n L C.E.E.J.-.-.j.j.j.j.j.j.j.j.",
"j.j.j.j.j.j.j.0.0 ,.2.n.D.G.z Q L C.Y.Y.@XP.N.v.f.j.j.j.j.j.j.j.",
"j.j.j.g.j.j.j.$.0 >.2.n.D.K.U.Y.OX+X@X@XY.P.N.v.#.o.;.;.h.j.j.j.",
"j.j.g.#.6.j.j.6.0 >.1.t x.D.G.I.Y.Y.Y.m.D.M.x @.%.%.j.o.#.j.j.j.",
"j.j.j.j.j.g.j.8.0 >.1.t x.D.G.L.L.L.L.b.D.M.x j.g.j.j.j.j.j.j.j.",
"j.j.j.j.j.;.#.e :.:.3 5 a n.N.M.M.M.M.b.M.S.*.j.j.j.j.j.j.j.j.j.",
"j.j.j.j.j.f...2 <.:.$ 8 g l p p B.p p y p v X.j.j.j.j.0.j.j.j.j.",
"j.j.j.j.j.6.} 3 ,.4 > 8 8 f 5 8 7 j f $ , 6 w  .0.j.j.j.j.j.j.j.",
"j.j.j.j.j.j.+ <.3 > 7 7 8 7 @ , 7 7 8 H $ 9 9 2 q.j.j.j.h.;.j.j.",
"j.;.j.j.j.g.o % + O O O O + o o O + O $ o + + 2 j.j.j.j.j.*.q.j."
};
