/* XPM */
static char *b05acc07e2ae4b45f2b2741357b650feWlzvYK7Ob86fwK2a[] = {
/* columns rows colors chars-per-pixel */
"32 32 184 2 ",
"   c #34B134",
".  c #33B033",
"X  c #33AF33",
"o  c #34B034",
"O  c #32AE32",
"+  c #32AD32",
"@  c #33AE33",
"#  c #2FA92F",
"$  c #30AA30",
"%  c #32AF32",
"&  c #31AC31",
"*  c #30AB30",
"=  c #2FA82F",
"-  c #31AD31",
";  c #31AB31",
":  c #31942B",
">  c #3A1C14",
",  c #367527",
"<  c #31992D",
"1  c #349A2E",
"2  c #359B2F",
"3  c #38882C",
"4  c #472319",
"5  c #49241A",
"6  c #4D261B",
"7  c #3E6A26",
"8  c #33992E",
"9  c #34A430",
"0  c #2EA72E",
"q  c #2FA72F",
"w  c #38381A",
"e  c #8E4631",
"r  c #A14F38",
"t  c #B75A40",
"y  c #6C3526",
"u  c #375F22",
"i  c #30A930",
"p  c #2DA52D",
"a  c #2EA62E",
"s  c #349F30",
"d  c #31952C",
"f  c #34992E",
"g  c #33972E",
"h  c #433A1D",
"j  c #582B1F",
"k  c #954933",
"l  c #A45139",
"z  c #783B2A",
"x  c #415822",
"c  c #33A832",
"v  c #2CA32C",
"b  c #37471D",
"n  c #7D3E2B",
"m  c #7F3E2C",
"M  c #327E27",
"N  c #338529",
"B  c #376D26",
"V  c #366D25",
"C  c #346923",
"Z  c #534022",
"A  c #602F21",
"S  c #6D3526",
"D  c #723828",
"F  c #974A35",
"G  c #984B35",
"H  c #465A24",
"J  c #34952D",
"K  c #375720",
"L  c #753A29",
"P  c #AB543C",
"I  c #337024",
"U  c #349C2F",
"Y  c #326621",
"T  c #4B4621",
"R  c #592C1F",
"E  c #653123",
"W  c #934833",
"Q  c #B1573E",
"!  c #A4513A",
"~  c #8C4532",
"^  c #5C2D21",
"/  c #482319",
"(  c #3A4E20",
")  c #2C631F",
"_  c #36842A",
"`  c #633022",
"'  c #3E1E16",
"]  c #2D1610",
"[  c #317C25",
"{  c #6A3425",
"}  c #8A4430",
"|  c #8D4531",
" . c #904632",
".. c #753929",
"X. c #6E3627",
"o. c #663223",
"O. c #6E3626",
"+. c #733828",
"@. c #35822A",
"#. c #6C3525",
"$. c #87422F",
"%. c #A6523A",
"&. c #613022",
"*. c #773A29",
"=. c #4E261B",
"-. c #8B4430",
";. c #AA533B",
":. c #82402E",
">. c #6B3526",
",. c #683324",
"<. c #773A2A",
"1. c #793B2A",
"2. c #7B3C2B",
"3. c #7E3D2C",
"4. c #84402E",
"5. c #723827",
"6. c #348229",
"7. c #8D4631",
"8. c #7B3D2A",
"9. c #743928",
"0. c #6D3626",
"q. c #7A3C2A",
"w. c #7D3D2C",
"e. c #643123",
"r. c #432118",
"t. c #6B3425",
"y. c #8C4530",
"u. c #763A29",
"i. c #6F3726",
"p. c #7C3D2B",
"a. c #763929",
"s. c #612F22",
"d. c #592B20",
"f. c #3F2C1A",
"g. c #2E2C15",
"h. c #348028",
"j. c #86422E",
"k. c #793C2A",
"l. c #2F7124",
"z. c #338629",
"x. c #393218",
"c. c #5D3722",
"v. c #753928",
"b. c #803F2C",
"n. c #52281D",
"m. c #3C2B19",
"M. c #2E2D15",
"N. c #307926",
"B. c #51281D",
"V. c #307124",
"C. c #357025",
"Z. c #38481E",
"A. c #4F3F21",
"S. c #803F2D",
"D. c #733928",
"F. c #663224",
"G. c #47301C",
"H. c #2E431A",
"J. c #2F441B",
"K. c #2F441A",
"L. c #2E4219",
"P. c #318429",
"I. c #321912",
"U. c #317925",
"Y. c #38481D",
"T. c #5C3A23",
"R. c #5F2E21",
"E. c #54291D",
"W. c #32421B",
"Q. c #2D4119",
"!. c #2C5E1E",
"~. c #311811",
"^. c #33A030",
"/. c #317F26",
"(. c #367427",
"). c #327325",
"_. c #2E6F23",
"`. c #317225",
"'. c #31A730",
"]. c #2FAA2F",
"[. c #2BA22B",
"{. c #2CA42C",
"}. c #32AC32",
"|. c #2DA42D",
/* pixels */
"  . X o o O .   + .   O .   @ .   . X o o O .   + .   O .   @ . ",
"# X O # . + $ % & + O & X * + X # X O # . + $ % & + O & X * + X ",
"O = . + $ O + + - % X $ . . = . O = . + $ O + + - % X $ . . = . ",
"  + . o + . . X . . o O .   + .   + . o + . . X . . o O .   + . ",
"& O + - X * O X $ X O $ X - ; % & O + - X * O X $ X O $ X - ; % ",
"$ O . # X X # . O & X + O + + . $ O . : > > > , O & X + O + + . ",
"  # . o $ . . + % . X & .   < 1 2 : 1 3 4 5 6 7 8 9 X & .   $ . ",
". + & o X #   . 0   . q o . w > > > > 4 e r t y > u . q o . i O ",
"0 X . p o . a . s d f f g d h 4 6 6 6 j k l t z 6 x f c + $ X . ",
"o v . . p % o $ b > > > > > n e t t t t t t t t t m > M .   p . ",
"o + N B V C B V Z A S D D D F r t t t t t t t t t G D H B J $ O ",
"p   K > > > > > L e P t t t t t t t t t t t t t t t t A > I o . ",
"U Y T R E D D D W r Q t t t t t t t t t t ! ~ ~ ~ ~ ~ ^ / ( ) . ",
"_ > ` m G t t t t t t t t t t t t t t t t ~ j j j j j j j ' ] X ",
"[ > { } |  .P t t t t t t t t t ..........X.o.O.+.+.+.+.+.5 ] . ",
"@.> #.e $.m %.t t t t t t t t t j j j j j &.#.*.m m m m m =.] . ",
"_ > #.e | -.-.} ;.t :.>.>.>.>.>.,.S <.<.<.1.2.3.m m m m m =.] . ",
"M > #.e e e 4.m %.t ..j j j j j #.5.m m m m m m m m m m m =.] X ",
"6.> #.e e e 7.| 8.9.0.{ q.2.2.2.w.3.m m m m m m m m m y e.r.] . ",
"_ > t.y.7.e e e u.#.O.i.3.m m m m m m m m p.q.a.+.+.+.s.d.f.g.. ",
"h.> ` m j.e e e u.#.k.m m m m m m m m m m X.j ' ] ] ] ] ] l.; % ",
"z.x.c.v.b.y.7.e u.#.k.m m m m m 2.z +.+.+.e.n.m.M.g.M.g.M.N.+ . ",
"  # K > R m } e u.#.k.m m m m m s.B.] ] ] ] ] V.% . X & .   $ . ",
". + C.Z.A.t.S.} v.#.D.u.,.F.F.F.B.G.H.J.K.L.J.P.0   . q o . i O ",
"0 X . p B > t.m 5.#.E s.I.] ] ] ] K.. p o . a . X $ X X + $ X . ",
"o v . . U.Y.T.t.R.R E.B.W.J.Q.K.J.!.. . p % o $ - o + = .   p . ",
"o + & o X # Z.> ~.] ] ] ^.. $ O o + & o X # o . q o . = o . $ O ",
"p   . v   . /.(.)._.V.`.'.= o . p   . v   . p X . ].+ . - = o . ",
". [.. . {.O o i & o + 0   o v . . [.. . {.O o i & o + 0   o v . ",
"  X O o . & o   * .   ; .   }.X   X O o . & o   * .   ; .   }.X ",
"p . . |.o . a X X * - . + = . . p . . |.o . a X X * - . + = . . ",
"X |.. X a O X * & . O 0 . . p . X |.. X a O X * & . O 0 . . p . "
};
