/* XPM */
static char *_05cd39569294ff596ede282fd954fc5QpwZi9hhhU1CZohJ[] = {
/* columns rows colors chars-per-pixel */
"32 32 194 2 ",
"   c #AA5C36",
".  c #AB5A35",
"X  c #A95935",
"o  c #945332",
"O  c #734D37",
"+  c #815238",
"@  c #A65A34",
"#  c #AB5B35",
"$  c #A15631",
"%  c #A75833",
"&  c #A75732",
"*  c #A55732",
"=  c #8D4B2A",
"-  c #643B23",
";  c #734228",
":  c #A25530",
">  c #9D522F",
",  c #A55631",
"<  c #623922",
"1  c #724127",
"2  c #9D522E",
"3  c #A65631",
"4  c #8E4B2B",
"5  c #633922",
"6  c #734127",
"7  c #A85833",
"8  c #8F4B2B",
"9  c #9C522E",
"0  c #A15530",
"q  c #A65732",
"w  c #783E21",
"e  c #773C20",
"r  c #773D20",
"t  c #773D1F",
"y  c #6C391F",
"u  c #53321F",
"i  c #5B341F",
"p  c #753C20",
"a  c #783D20",
"s  c #783D1F",
"d  c #793D20",
"f  c #793D21",
"g  c #7A3D21",
"h  c #763C20",
"j  c #4D301F",
"k  c #482B19",
"l  c #492B1A",
"z  c #492B19",
"x  c #492C1A",
"c  c #472C1C",
"v  c #412B1D",
"b  c #432B1D",
"n  c #482C1A",
"m  c #4A2B1A",
"M  c #4A2B1B",
"N  c #4B2B1A",
"B  c #4C2D1D",
"V  c #654B3C",
"C  c #7E4A2E",
"Z  c #7B472A",
"A  c #7A462A",
"S  c #764429",
"D  c #573521",
"F  c #472E1E",
"G  c #633B24",
"H  c #774529",
"J  c #7B462A",
"K  c #7B472B",
"L  c #7B472C",
"P  c #6F4127",
"I  c #503220",
"U  c #492F1F",
"Y  c #6C3F26",
"T  c #7B462B",
"R  c #7C472D",
"E  c #8C5F45",
"W  c #A45934",
"Q  c #A35832",
"!  c #A35732",
"~  c #9F5530",
"^  c #734026",
"/  c #593621",
"(  c #854A2B",
")  c #A05631",
"_  c #A45732",
"`  c #94502E",
"'  c #673B24",
"]  c #5B3723",
"[  c #914F2D",
"{  c #9F5836",
"}  c #A75933",
"|  c #A45531",
" . c #7C4327",
".. c #603823",
"X. c #8D4C2B",
"o. c #99512F",
"O. c #6E3D25",
"+. c #613A24",
"@. c #99512E",
"#. c #A45631",
"$. c #5F3823",
"%. c #8C4C2B",
"&. c #5F3923",
"*. c #6E3D24",
"=. c #6E3E24",
"-. c #613924",
";. c #7C4328",
":. c #613923",
">. c #934D2C",
",. c #924B2A",
"<. c #904B2A",
"1. c #713E24",
"2. c #5A3521",
"3. c #7E4426",
"4. c #914B2A",
"5. c #924B2B",
"6. c #924C2A",
"7. c #874728",
"8. c #663921",
"9. c #5B3621",
"0. c #924C2B",
"q. c #8B4929",
"w. c #5F3520",
"e. c #5C311C",
"r. c #5C321D",
"t. c #52311E",
"y. c #492F1E",
"u. c #56311D",
"i. c #5C321C",
"p. c #5C311D",
"a. c #59311C",
"s. c #4E2F1D",
"d. c #492E1E",
"f. c #5A321D",
"g. c #5D321D",
"h. c #5E331E",
"j. c #68412E",
"k. c #5C3B27",
"l. c #573421",
"z. c #593723",
"x. c #593824",
"c. c #583622",
"v. c #563421",
"b. c #4C2F1E",
"n. c #40291B",
"m. c #462C1D",
"M. c #543220",
"N. c #583521",
"B. c #573420",
"V. c #583623",
"C. c #735545",
"Z. c #9F5936",
"A. c #9C5632",
"S. c #9C5633",
"D. c #9D5633",
"F. c #9D5632",
"G. c #9B5532",
"H. c #7E472A",
"J. c #543421",
"K. c #663D26",
"L. c #935130",
"P. c #9C5733",
"I. c #A0603E",
"U. c #AA5A34",
"Y. c #AA5933",
"T. c #A95933",
"R. c #A95833",
"E. c #914D2C",
"W. c #643A23",
"Q. c #9F532F",
"!. c #904C2B",
"~. c #653A23",
"^. c #734126",
"/. c #A65731",
"(. c #904C2C",
"). c #724126",
"_. c #643A22",
"`. c #724026",
"'. c #A05430",
"]. c #9B522E",
"[. c #804427",
"{. c #7F4225",
"}. c #804224",
"|. c #7F4224",
" X c #804225",
".X c #7E4123",
"XX c #743E22",
"oX c #58331E",
"OX c #5F361F",
"+X c #7E4224",
"@X c #804325",
"#X c #7F4325",
"$X c #7F4324",
"%X c #773D21",
/* pixels */
"  . . . . . . . . . . . . X o O + @ . . . . . . . . # # . . # $ ",
"% & & & & & & & & & & & & * = - ; : & & & & & & & & & & & & & > ",
"% & & & & & & & & & & & & , = < 1 : & & & & & & & & & & & & & 2 ",
"% & & & & & & & & & & & & 3 4 5 6 : & & & & & & & & & & & & & 2 ",
"% & & & & & & & & & & & & , 4 5 6 : & & & & & & & & & & 7 & & > ",
"% 7 & & & & & & & & & & & 3 8 5 1 : & & & & 7 & & & & 7 7 & & 9 ",
"% & & & & & & & & & & & & 3 8 5 1 0 & & & & & & & & & & & & q 9 ",
"% & & & & & & & & & & & & , 4 5 1 0 & & & & & & & & & & & & & 2 ",
"w e r r r r r r t t r r t e y u i p a s d d d d d d d f f g g h ",
"j k l k z l l k z z l z z x c v b n l z z l l l m m m M M N B V ",
"C Z Z A A S D F G H Z J J Z K L K K J Z J J P I U Y T K T J R E ",
"W Q Q ! ! ~ ^ / ( ) Q ! ! ! ! ! Q ! _ Q ! ! ` ' ] [ ! Q ! ! ! { ",
"} & & & & |  ...X., & & & & & & & & & & & & o.O.+.@.& & & 7 & 2 ",
"% & & & & #. .$.%., & & & & & & & & & & & & o.O.+.@.& & & & & 2 ",
"% & & & & #. .&.%., & & & & & & & & & & & & o.O.+.@.& & & & & 2 ",
"% & & & & |  .$.%., & & & & & & & & & & & & @.*.+.@.& & & & & 2 ",
"% & & & & |  .$.%., & & & & & & & & & & & & @.*.+.@.& & & & & 2 ",
"% & & & & |  .&.%., & & & & & & & & & & & & @.=.-.@.& & & & & 2 ",
"% & & & & #.;.$.%., & & & & & & & & & & & & @.=.:.@.& & & & & 9 ",
">.,.,.,.,.<.1.2.3.4.,.,.,.,.5.5.6.6.5.5.5.,.7.8.9.7.0.5.,.6.5.q.",
"w.e.e.e.e.r.t.y.u.i.i.e.e.e.p.r.i.i.r.p.r.i.a.s.d.f.g.p.e.i.h.j.",
"k.l.l.l.l.D z.x.c.D l.l.l.v.b.n.m.M.l.l.D D N.z.z.c.l.B.l.l.V.C.",
"Z.A.S.A.A.A.A.S.D.D.A.F.D.G.H.J.K.L.A.A.A.A.F.F.F.F.F.D.S.S.P.I.",
"U.Y.T.T.R.R.R.R.Y.T.T.Y.Y.7 E.W.6 #.T.T.T.R.R.R.R.T.Y.Y.T.R.R.Q.",
"% 7 & & & & & & & & & & & 3 !.~.6 : & & & & & & & & 7 & & & & 2 ",
"% & & & & & & & & & & & & 3 !.~.^.: & & & & & & & & & & & & & 2 ",
"% & & & & & & & & & & & & /.(.~.^.: & & & & & & & & & & & & & > ",
"% & & 7 & & & & & & & & & /.!.~.6 : & & & & & & & & & & & & & 2 ",
"% & & & & & & & & & & & & 3 !.~.).: & & & & & & & & & & 7 & & 2 ",
"% & & & & & & 7 & & & & & 3 !.~.1 0 & & & & & & & & & & 7 & & 2 ",
"* , , , , , , , , , , , , | 4 _.`.'., , , , , , , , , , , , , ].",
"[.{.{.{.}.{.{.|.}.}. X{.|..XXXoXOX+X{.@X|.{.{.{.{.|.|.#X$X#X|.%X"
};
