/* XPM */
static char *_56c8dd27c8d4279e30686843dcd3433W0yl4BqJSVFPD351[] = {
/* columns rows colors chars-per-pixel */
"50 50 45 1 ",
"  c black",
". c #060000",
"X c #0A0101",
"o c #0F0101",
"O c #140101",
"+ c #1B0202",
"@ c #1E0202",
"# c #200303",
"$ c #270404",
"% c #2B0505",
"& c #2F0505",
"* c #310606",
"= c #320606",
"- c #370707",
"; c #380808",
": c #390808",
"> c #3F0A0A",
", c #420A0A",
"< c #430B0B",
"1 c #440B0B",
"2 c #460C0C",
"3 c #4E0E0E",
"4 c #500F0F",
"5 c #531010",
"6 c #561010",
"7 c #591212",
"8 c #5E1313",
"9 c #621414",
"0 c #651515",
"q c #681616",
"w c #6A1717",
"e c #6C1717",
"r c #6F1818",
"t c #701818",
"y c #711919",
"u c #731919",
"i c #741A1A",
"p c #771B1B",
"a c #7A1B1B",
"s c #7B1C1C",
"d c #7C1C1C",
"f c #821E1E",
"g c #871F1F",
"h c #882020",
"j c #892020",
/* pixels */
"jjjjjgggggggggggghhhjjjjjjjjjhhhjjjjjjjjjjjgggghjg",
"jjjjjjjjjjhhhhjjjjjjjjjjjjjjjhjhjgggggggdeq0yajjjh",
"jjjjjgjhjjjjhhhhhjhhjjjgjjjjjghhgjggjgggggjggjjjjj",
"jjjjjgssdssssssssayyyuuyyuyyyyyryeyyrryeyryryygjjh",
"jjjjf6::::;:::::;-%%$$%$$%$%%%$$%$$%$%%%$$%$$4fghh",
"jjjgd>                                       1fgjg",
"jjggd>                                       <fgjg",
"jjggf>                                       1fgjg",
"jjjgd>                                       <sjjh",
"jjjff:                                       1ffjg",
"jjjgf>                                       2fgjh",
"jjjfd>                                       <shjj",
"jjjfd>                                       <ffjh",
"jjgfd>                                       <djjg",
"jjjgd:                                       2shjg",
"jjjff>                                       <ffjg",
"jjjfd>                                       <fghh",
"jjjgd>                                       <fjhh",
"jjjgd>        oo                             :shhh",
"jjjfd>       O>>O                            :shgh",
"jjjfd>       $88%                            :sjhf",
"jjjfd>       .%$.                            =sjfh",
"jjjgd>                                       &yfss",
"jjgfd>                                       =yfys",
"jjjfd>                                       =ydyd",
"jjjfd>                                       =yfyj",
"jjjgd>                                       =yfdh",
"jjjad>                                       =yfas",
"jjjud>                                       =ysyj",
"jjjud>                                       =yfss",
"jjjya>                                       =ysud",
"jjjdy=                                       =yssj",
"jjjfr=                                       =yfsf",
"jjjdr&                                       =yauf",
"jjjfy=                                       =ufsf",
"jjgge=                                       =yfyh",
"jjjg0@                                       &yfyj",
"jjjh9+                                       =ydsh",
"hjjj8                                        =yfdg",
"jjjj0X                                       =yfdd",
"jjjhy&                                       &yffu",
"hjjhd=                                       =yffy",
"hjjhd<                                       &yfhr",
"gjhgf3===&=&=2<54<o                          =yfjw",
"gjjfqyryyyyysffggf>          @+@@++@@+       &yjf9",
"fhghjdssffffggfyy3o       @=<67777777736546654yjjq",
"hjhjgdsaaasrq0976631#@@@@<8ydffsdsdfffghgghhhhjjjh",
"jjjjjgjgjjhjjgjjggggeyyuyfgjfsffgfjjjjjjjjjjjjjjjj",
"jjjjjjjjjjjjjjjjjjjjjjjjjjjjjjjjjjjjjjjjjjjhgffjf0",
"jjjjjjjjjjjjjjjjjjjjjjjjjjjjjjjjjjjjjjjjjjjjhgggf0"
};
